<svg xmlns="http://www.w3.org/2000/svg" xmlns:xlink="http://www.w3.org/1999/xlink" width="258" zoomAndPan="magnify" viewBox="0 0 193.5 147.000002" height="196" preserveAspectRatio="xMidYMid meet" version="1.0"><defs><clipPath id="86f566bfab"><path d="M 2 2 L 77.878906 2 L 77.878906 106.523438 L 2 106.523438 Z M 2 2 " clip-rule="nonzero"/></clipPath><clipPath id="0ee8216514"><path d="M 7.636719 105.15625 L 118.53125 105.15625 L 118.53125 140.480469 L 7.636719 140.480469 Z M 7.636719 105.15625 " clip-rule="nonzero"/></clipPath><clipPath id="06a567e1bb"><path d="M 64.414062 102.667969 L 157.480469 102.667969 L 157.480469 145.21875 L 64.414062 145.21875 Z M 64.414062 102.667969 " clip-rule="nonzero"/></clipPath></defs><path fill="#ff6341" d="M 50.167969 26.058594 C 44.484375 26.058594 39.871094 30.101562 39.871094 35.082031 C 39.871094 30.101562 35.261719 26.058594 29.574219 26.058594 C 24.808594 26.058594 19.792969 30.046875 19.503906 34.800781 C 19.117188 41.144531 23.753906 47.085938 28.054688 51.21875 C 31.140625 54.179688 34.621094 56.933594 38.164062 59.324219 C 38.304688 59.417969 39.660156 60.457031 39.871094 60.339844 C 48.316406 55.609375 60.472656 45.886719 60.472656 35.082031 C 60.472656 30.101562 55.859375 26.058594 50.167969 26.058594 Z M 50.167969 26.058594 " fill-opacity="1" fill-rule="nonzero"/><path fill="#152039" d="M 39.828125 61.734375 C 39.265625 61.734375 38.757812 61.476562 37.472656 60.53125 L 37.375 60.460938 C 33.609375 57.921875 30.144531 55.144531 27.097656 52.21875 C 20.804688 46.171875 17.785156 40.28125 18.121094 34.714844 C 18.441406 29.460938 23.898438 24.675781 29.574219 24.675781 C 34.015625 24.675781 37.890625 26.898438 39.863281 30.160156 C 40.414062 29.25 41.121094 28.410156 41.976562 27.660156 C 44.171875 25.734375 47.082031 24.675781 50.167969 24.675781 C 53.257812 24.675781 56.167969 25.734375 58.367188 27.660156 C 60.617188 29.632812 61.855469 32.269531 61.855469 35.082031 C 61.855469 48.910156 44.105469 59.554688 40.546875 61.550781 C 40.332031 61.671875 40.082031 61.734375 39.828125 61.734375 Z M 29.574219 27.445312 C 25.339844 27.445312 21.117188 31.058594 20.886719 34.882812 C 20.53125 40.761719 25.109375 46.46875 29.015625 50.21875 C 31.90625 52.996094 35.339844 55.746094 38.9375 58.175781 C 38.96875 58.195312 39.027344 58.238281 39.109375 58.296875 C 39.414062 58.519531 39.636719 58.675781 39.800781 58.789062 C 48.839844 53.578125 59.085938 44.398438 59.085938 35.082031 C 59.085938 33.078125 58.183594 31.183594 56.542969 29.746094 C 54.847656 28.261719 52.585938 27.445312 50.167969 27.445312 C 47.753906 27.445312 45.492188 28.261719 43.800781 29.746094 C 42.160156 31.183594 41.253906 33.078125 41.253906 35.082031 C 41.253906 35.847656 40.632812 36.46875 39.871094 36.46875 C 39.105469 36.46875 38.484375 35.847656 38.484375 35.082031 C 38.484375 30.871094 34.488281 27.445312 29.574219 27.445312 Z M 29.574219 27.445312 " fill-opacity="1" fill-rule="nonzero"/><path fill="#ff6341" d="M 65.550781 14.289062 C 51.429688 0.171875 28.535156 0.171875 14.410156 14.289062 C 1.53125 27.164062 0.398438 47.335938 11.003906 61.492188 C 11 61.492188 11 61.492188 11 61.492188 L 39.976562 104.652344 L 68.128906 62.5625 C 73.5625 55.835938 76.230469 47.613281 76.128906 39.421875 C 76.015625 30.3125 72.496094 21.242188 65.550781 14.289062 Z M 61.382812 61.265625 C 60.980469 61.671875 60.566406 62.0625 60.144531 62.4375 C 53.636719 68.261719 45.214844 70.777344 37.058594 69.992188 C 30.515625 69.359375 24.144531 66.609375 19.050781 61.734375 C 18.890625 61.578125 18.730469 61.421875 18.574219 61.265625 C 6.753906 49.445312 6.753906 30.277344 18.574219 18.457031 C 30.394531 6.632812 49.566406 6.632812 61.382812 18.457031 C 67.199219 24.273438 70.148438 31.867188 70.242188 39.492188 C 70.339844 47.359375 67.390625 55.257812 61.382812 61.265625 Z M 61.382812 61.265625 " fill-opacity="1" fill-rule="nonzero"/><g clip-path="url(#86f566bfab)"><path fill="#152039" d="M 39.976562 106.035156 C 39.515625 106.035156 39.082031 105.804688 38.824219 105.421875 L 9.851562 62.265625 C 9.847656 62.261719 9.84375 62.257812 9.839844 62.25 C 4.515625 55.105469 1.917969 46.253906 2.519531 37.316406 C 3.128906 28.261719 7.003906 19.734375 13.433594 13.3125 C 20.523438 6.222656 29.953125 2.316406 39.980469 2.316406 C 50.007812 2.316406 59.4375 6.222656 66.527344 13.3125 C 73.492188 20.277344 77.394531 29.542969 77.515625 39.402344 C 77.621094 48.113281 74.683594 56.628906 69.246094 63.382812 L 41.125 105.421875 C 40.871094 105.804688 40.4375 106.035156 39.976562 106.035156 Z M 12.199219 60.796875 L 39.972656 102.164062 L 66.976562 61.792969 C 67 61.757812 67.027344 61.722656 67.050781 61.691406 C 72.113281 55.429688 74.84375 47.527344 74.746094 39.4375 C 74.632812 30.304688 71.019531 21.722656 64.570312 15.269531 C 58.003906 8.703125 49.269531 5.085938 39.980469 5.085938 C 30.691406 5.085938 21.960938 8.703125 15.390625 15.269531 C 3.238281 27.417969 1.828125 46.933594 12.113281 60.664062 C 12.144531 60.707031 12.175781 60.753906 12.199219 60.796875 Z M 39.972656 71.519531 C 38.960938 71.519531 37.933594 71.46875 36.925781 71.371094 C 29.785156 70.679688 23.273438 67.691406 18.09375 62.734375 C 17.929688 62.574219 17.761719 62.410156 17.59375 62.246094 C 5.253906 49.902344 5.253906 29.820312 17.59375 17.476562 C 23.574219 11.496094 31.523438 8.203125 39.980469 8.203125 C 48.4375 8.203125 56.386719 11.496094 62.363281 17.476562 C 68.234375 23.351562 71.523438 31.160156 71.628906 39.476562 C 71.734375 48.078125 68.441406 56.164062 62.363281 62.246094 C 61.972656 62.640625 61.546875 63.042969 61.066406 63.472656 C 55.269531 68.660156 47.777344 71.519531 39.972656 71.519531 Z M 39.980469 10.972656 C 32.261719 10.972656 25.007812 13.980469 19.554688 19.4375 C 8.292969 30.699219 8.292969 49.023438 19.554688 60.285156 C 19.703125 60.433594 19.855469 60.585938 20.007812 60.730469 C 24.734375 65.257812 30.679688 67.984375 37.195312 68.617188 C 38.113281 68.703125 39.046875 68.75 39.972656 68.75 C 47.09375 68.75 53.929688 66.140625 59.222656 61.40625 C 59.660156 61.015625 60.046875 60.648438 60.398438 60.292969 C 65.953125 54.738281 68.953125 47.359375 68.859375 39.507812 C 68.765625 31.921875 65.761719 24.792969 60.40625 19.4375 C 54.949219 13.980469 47.695312 10.972656 39.980469 10.972656 Z M 39.980469 10.972656 " fill-opacity="1" fill-rule="nonzero"/></g><path fill="#152039" d="M 62.738281 50.367188 C 62.609375 50.367188 62.476562 50.339844 62.351562 50.285156 C 61.847656 50.074219 61.613281 49.492188 61.828125 48.988281 C 61.863281 48.90625 61.914062 48.808594 61.972656 48.683594 C 62.21875 48.195312 62.722656 47.175781 63.328125 44.722656 C 63.457031 44.191406 63.996094 43.867188 64.523438 44 C 65.054688 44.128906 65.378906 44.664062 65.25 45.195312 C 64.59375 47.863281 64.019531 49.011719 63.746094 49.566406 C 63.703125 49.648438 63.671875 49.710938 63.648438 49.765625 C 63.488281 50.140625 63.125 50.367188 62.738281 50.367188 Z M 62.738281 50.367188 " fill-opacity="1" fill-rule="nonzero"/><path fill="#152039" d="M 65.386719 39.8125 C 65.363281 39.8125 65.339844 39.808594 65.320312 39.808594 C 64.773438 39.769531 64.363281 39.296875 64.398438 38.753906 C 65.371094 24.574219 51.34375 19.140625 51.203125 19.089844 C 50.691406 18.898438 50.433594 18.328125 50.625 17.816406 C 50.816406 17.304688 51.386719 17.046875 51.898438 17.234375 C 52.054688 17.292969 67.445312 23.253906 66.375 38.890625 C 66.335938 39.410156 65.902344 39.8125 65.386719 39.8125 Z M 65.386719 39.8125 " fill-opacity="1" fill-rule="nonzero"/><path fill="#ff6341" d="M 27.726562 78.507812 L 33.929688 87.941406 " fill-opacity="1" fill-rule="nonzero"/><path fill="#152039" d="M 33.929688 88.929688 C 33.609375 88.929688 33.292969 88.773438 33.105469 88.484375 L 26.902344 79.050781 C 26.601562 78.59375 26.726562 77.980469 27.183594 77.679688 C 27.640625 77.382812 28.253906 77.507812 28.554688 77.964844 L 34.757812 87.398438 C 35.058594 87.855469 34.929688 88.46875 34.472656 88.769531 C 34.304688 88.878906 34.117188 88.929688 33.929688 88.929688 Z M 33.929688 88.929688 " fill-opacity="1" fill-rule="nonzero"/><path fill="#ff6341" d="M 24.121094 72.617188 L 24.890625 73.824219 " fill-opacity="1" fill-rule="nonzero"/><path fill="#152039" d="M 24.894531 74.8125 C 24.566406 74.8125 24.246094 74.652344 24.058594 74.355469 L 23.285156 73.148438 C 22.992188 72.691406 23.125 72.078125 23.585938 71.785156 C 24.046875 71.488281 24.65625 71.621094 24.953125 72.082031 L 25.726562 73.289062 C 26.019531 73.75 25.886719 74.359375 25.425781 74.65625 C 25.261719 74.761719 25.074219 74.8125 24.894531 74.8125 Z M 24.894531 74.8125 " fill-opacity="1" fill-rule="nonzero"/><path fill="#000000" d="M 55.703125 101.789062 C 102.171875 96.1875 185.898438 113.164062 159.101562 142.304688 C 192.289062 112.09375 102.78125 95.296875 55.703125 101.789062 " fill-opacity="1" fill-rule="evenodd"/><path fill="#000000" d="M 51.628906 102.734375 C 98.03125 97.609375 181.355469 114.53125 154.589844 143.4375 C 187.734375 113.523438 98.640625 96.722656 51.628906 102.734375 " fill-opacity="1" fill-rule="evenodd"/><path fill="#000000" d="M 12.085938 107.203125 C 62.296875 98.554688 147.230469 108.976562 112.984375 138.855469 C 154.195312 107.496094 63.121094 97.65625 12.085938 107.203125 " fill-opacity="1" fill-rule="evenodd"/><g clip-path="url(#0ee8216514)"><path fill="#000000" d="M 7.382812 108.570312 C 57.5 100.351562 142.160156 110.65625 107.96875 140.292969 C 149.113281 109.238281 58.324219 99.457031 7.382812 108.570312 " fill-opacity="1" fill-rule="evenodd"/></g><g clip-path="url(#06a567e1bb)"><path fill="#000000" d="M 157.109375 133.917969 C 159.0625 127.445312 152.910156 121.585938 147.558594 118.472656 C 138.601562 113.253906 124.320312 108.945312 109.511719 106.246094 C 92.730469 103.183594 75.285156 102.125 64.417969 102.925781 C 86.703125 104.488281 121.8125 107.878906 124.519531 121.824219 C 126.039062 129.640625 120.8125 137.363281 104.691406 143.34375 C 116.800781 146.085938 126.65625 145.128906 132.625 139.738281 C 133.882812 138.601562 134.953125 137.496094 135.84375 136.421875 L 140.761719 137.488281 C 139.011719 139.992188 136.429688 142.660156 132.851562 145.507812 C 144.84375 144.941406 154.730469 141.792969 157.109375 133.917969 Z M 132.597656 115.992188 L 128.855469 115.324219 C 120.96875 111.109375 109.792969 108.015625 99.109375 105.851562 C 109.628906 107.664062 123.207031 110.902344 132.597656 115.992188 Z M 131.359375 116.777344 L 135.0625 117.433594 C 136.929688 118.617188 138.570312 119.894531 139.902344 121.261719 L 136 120.414062 C 134.738281 119.125 133.167969 117.914062 131.359375 116.777344 Z M 137.359375 121.992188 L 141.265625 122.839844 C 142.546875 124.53125 143.367188 126.355469 143.601562 128.320312 L 139.492188 127.429688 C 139.378906 125.488281 138.625 123.679688 137.359375 121.992188 Z M 139.441406 129.054688 L 143.664062 129.972656 C 143.589844 131.613281 143.113281 133.351562 142.171875 135.179688 L 137.492188 134.164062 C 138.621094 132.375 139.246094 130.671875 139.441406 129.054688 " fill-opacity="1" fill-rule="evenodd"/></g></svg>